PathFileType	4	(X/Y/Z)	14_coords_data.trc
DataRate	CameraRate	NumFrames	NumMarkers	Units	OrigDataRate	OrigDataStartFrame	OrigNumFrames
30.0	30.0	4	21	m	30.0	1	64
Frame#	Time	THUMB_TIP	THUMB_IP	THUMB_MCP	THUMB_CMC	INDEX_TIP	INDEX_DIP	INDEX_PIP	INDEX_MCP	MIDDLE_TIP	MIDDLE_DIP	MIDDLE_PIP	MIDDLE_MCP	RING_TIP	RING_DIP	RING_PIP	RING_MCP	PINKY_TIP	PINKY_DIP	PINKY_PIP	PINKY_MCP	WRIST
X1	Y1	Z1	X2	Y2	Z2	X3	Y3	Z3	X4	Y4	Z4	X5	Y5	Z5	X6	Y6	Z6	X7	Y7	Z7	X8	Y8	Z8	X9	Y9	Z9	X10	Y10	Z10	X11	Y11	Z11	X12	Y12	Z12	X13	Y13	Z13	X14	Y14	Z14	X15	Y15	Z15	X16	Y16	Z16	X17	Y17	Z17	X18	Y18	Z18	X19	Y19	Z19	X20	Y20	Z20	X21	Y21	Z21
0	0.0	0.0298966007232666	0.015373299598693848	0.961176025390625	0.019875	0.003707930088043213	0.9817319946289063	0.000271692007780075	0.00025557699799537604	1.00502001953125	-0.01626020050048828	0.02087430000305176	1.0181300048828126	0.02760260009765625	-0.030842100143432617	0.9247860107421875	0.007473060131072998	-0.028494699478149414	0.9260490112304688	-0.012728699684143066	-0.024214399337768554	0.934364990234375	-0.02666900062561035	-0.011377400398254394	0.9644039916992188	-0.0009195340275764461	0.000680626988410949	0.9802030029296875	0.012204000473022461	0.0005524389743804931	0.9652150268554688	0.007324389934539795	0.00028383201360702504	0.9389149780273438	-0.0289064998626709	0.00917131996154785	0.9530549926757812	0.005434529781341553	0.017951499938964843	0.9886090087890625	0.013385600090026855	0.019553800582885743	0.9733690185546875	0.013387299537658692	0.023133100509643553	0.9497379760742187	-0.023153400421142577	0.031038600921630858	0.9548159790039062	0.02491510009765625	0.05114179992675781	0.9127379760742188	0.014238499641418456	0.049605499267578124	0.928697998046875	0.004690360069274902	0.04740090179443359	0.9435859985351562	-0.008768320083618164	0.04446950149536133	0.9664140014648438	-0.04241130065917969	0.03917959976196289	1.0279100341796874
1	0.03333333333333333	0.030093299865722657	0.015168700218200683	0.9619190063476563	0.019963199615478516	0.003693550109863281	0.9819660034179688	0.00031334701180458	0.000335453003644943	1.0052999877929687	-0.01649460029602051	0.020909799575805663	1.0185499877929687	0.028138399124145508	-0.030696199417114257	0.9258519897460937	0.008041359901428223	-0.02840290069580078	0.9267429809570312	-0.01223390007019043	-0.024214599609375	0.9348629760742188	-0.026809700012207033	-0.011295299530029296	0.96510400390625	-0.001284209966659546	0.000638423025608062	0.9803259887695313	0.01228339958190918	0.000535427987575531	0.96572998046875	0.007524620056152344	0.000281006008386611	0.9395900268554688	-0.028876499176025392	0.009251689910888672	0.9535170288085938	0.005250860214233399	0.017611799240112306	0.9885889892578125	0.013467000007629395	0.01948789978027344	0.973947021484375	0.013541500091552734	0.02313080024719238	0.9502589721679687	-0.023142599105834962	0.030969100952148436	0.9551580200195312	0.02520750045776367	0.051172698974609375	0.913344970703125	0.014480500221252442	0.04961050033569336	0.929218994140625	0.004851590156555176	0.04743000030517578	0.9441090087890625	-0.008763279914855957	0.044393001556396486	0.966781982421875	-0.04270090103149414	0.039172401428222654	1.0281600341796875
2	0.06666666666666667	0.03031089973449707	0.014849200248718261	0.9622630004882813	0.019954200744628905	0.0033871700763702392	0.9824019775390626	9.4948701560497e-05	4.3541099876165e-05	1.0060900268554687	-0.016506799697875975	0.02059519958496094	1.0189600219726562	0.028629499435424803	-0.03062700080871582	0.92664697265625	0.008481109619140625	-0.028478599548339843	0.927448974609375	-0.011992799758911132	-0.024349700927734374	0.9353939819335938	-0.02667490005493164	-0.011538999557495117	0.9655670166015625	-0.001182739973068237	0.00044820499420166	0.9804929809570313	0.012329899787902832	0.0004039070010185241	0.9661500244140625	0.007622280120849609	0.00011613900214433601	0.9399019775390625	-0.028900999069213867	0.009151029586791991	0.95410302734375	0.005684720039367676	0.017516500473022462	0.9890150146484376	0.013623499870300293	0.019222099304199217	0.974260986328125	0.013669699668884277	0.02294969940185547	0.9507009887695312	-0.02302980041503906	0.030788000106811524	0.955573974609375	0.0251077995300293	0.05107690048217774	0.913739990234375	0.01443400001525879	0.0494911003112793	0.929552978515625	0.0047923197746276855	0.04733940124511719	0.9444849853515624	-0.0086951904296875	0.04426649856567383	0.9671389770507812	-0.04263399887084961	0.03894440078735351	1.02843994140625
3	0.1	0.0306476993560791	0.014593700408935546	0.96285400390625	0.020234199523925783	0.003227360010147094	0.9830009765625	-0.000619844019412994	8.415710180997801e-05	1.0074000244140624	-0.016273399353027344	0.02028820037841797	1.019	0.029411399841308594	-0.0306294002532959	0.9279390258789062	0.00931900978088379	-0.028606700897216796	0.9282960205078125	-0.011288200378417969	-0.024594900131225585	0.9358699951171875	-0.02648590087890625	-0.011883700370788574	0.9660289916992187	-0.0012328000068664551	7.3868897743520005e-06	0.9807639770507812	0.012661700248718261	4.775689914822501e-05	0.9664219970703125	0.007854060173034668	-0.00016766500473022403	0.9403350219726563	-0.028566299438476564	0.00879382038116455	0.9544500122070313	0.0054819598197937015	0.017595500946044923	0.990280029296875	0.01349549961090088	0.0192101993560791	0.9752269897460938	0.013912799835205079	0.02267009925842285	0.9511849975585938	-0.022744699478149413	0.03041749954223633	0.95593798828125	0.025449300765991213	0.05083720016479492	0.9142150268554687	0.014720800399780274	0.049206401824951174	0.930052978515625	0.0050756998062133785	0.047000499725341795	0.9449099731445313	-0.00860463047027588	0.04403689956665039	0.9674829711914062	-0.04254660034179687	0.038608001708984374	1.0286800537109375
